<svg width="334" height="65" viewBox="0 0 334 65" fill="none" xmlns="http://www.w3.org/2000/svg">
  <path
    d="M14.9333 0C6.68594 0 0 6.68594 0 14.9333C0 23.1807 6.68594 29.8667 14.9333 29.8667C23.1807 29.8667 29.8667 23.1807 29.8667 14.9333C29.8578 6.68958 23.1771 0.00885416 14.9333 0ZM14.9333 27.7333C7.86406 27.7333 2.13333 22.0026 2.13333 14.9333C2.13333 7.86406 7.86406 2.13333 14.9333 2.13333C22.0026 2.13333 27.7333 7.86406 27.7333 14.9333C27.7255 21.9995 21.9995 27.7255 14.9333 27.7333Z"
    fill="white" />
  <path
    d="M49.0667 29.8667C57.3141 29.8667 64 23.1807 64 14.9333C64 6.68594 57.3141 0 49.0667 0C40.8193 0 34.1333 6.68594 34.1333 14.9333C34.1422 23.1771 40.8229 29.8578 49.0667 29.8667ZM49.0667 2.13333C56.1359 2.13333 61.8667 7.86406 61.8667 14.9333C61.8667 22.0026 56.1359 27.7333 49.0667 27.7333C41.9974 27.7333 36.2667 22.0026 36.2667 14.9333C36.2745 7.86719 42.0005 2.14115 49.0667 2.13333Z"
    fill="white" />
  <path
    d="M14.9333 34.1333C6.68594 34.1333 0 40.8193 0 49.0667C0 57.3141 6.68594 64 14.9333 64C23.1807 64 29.8667 57.3141 29.8667 49.0667C29.8578 40.8229 23.1771 34.1422 14.9333 34.1333ZM14.9333 61.8667C7.86406 61.8667 2.13333 56.1359 2.13333 49.0667C2.13333 41.9974 7.86406 36.2667 14.9333 36.2667C22.0026 36.2667 27.7333 41.9974 27.7333 49.0667C27.7255 56.1328 21.9995 61.8589 14.9333 61.8667Z"
    fill="white" />
  <path
    d="M49.0667 34.1333C40.8193 34.1333 34.1333 40.8193 34.1333 49.0667C34.1333 57.3141 40.8193 64 49.0667 64C57.3141 64 64 57.3141 64 49.0667C63.9911 40.8229 57.3104 34.1422 49.0667 34.1333ZM49.0667 61.8667C41.9974 61.8667 36.2667 56.1359 36.2667 49.0667C36.2667 41.9974 41.9974 36.2667 49.0667 36.2667C56.1359 36.2667 61.8667 41.9974 61.8667 49.0667C61.8588 56.1328 56.1328 61.8589 49.0667 61.8667Z"
    fill="white" />
  <path
    d="M14.9333 5.33333C14.3443 5.33333 13.8667 5.81093 13.8667 6.39999V13.8667H8.53333C7.94427 13.8667 7.46667 14.3443 7.46667 14.9333C7.46667 15.5224 7.94427 16 8.53333 16H14.9333C15.5224 16 16 15.5224 16 14.9333V6.39999C16 5.81093 15.5224 5.33333 14.9333 5.33333Z"
    fill="white" />
  <path
    d="M52.5792 19.9542C52.9979 20.3583 53.663 20.3526 54.0745 19.9411C54.4859 19.5297 54.4917 18.8646 54.0875 18.4458L50.1333 14.4917V6.39999C50.1333 5.81093 49.6557 5.33333 49.0667 5.33333C48.4776 5.33333 48 5.81093 48 6.39999V14.9333C48 15.2161 48.1125 15.4875 48.3125 15.6875L52.5792 19.9542Z"
    fill="white" />
  <path
    d="M20.2135 42.2787L14.9333 47.5583L11.1625 43.7865C10.8948 43.5094 10.4984 43.3979 10.1255 43.4958C9.75261 43.5932 9.46094 43.8849 9.36354 44.2578C9.26615 44.6307 9.37708 45.0271 9.65417 45.2948L14.1792 49.8208C14.5958 50.237 15.2708 50.237 15.6875 49.8208L21.7214 43.7865C22.126 43.3682 22.1203 42.7026 21.7089 42.2912C21.2974 41.8797 20.6318 41.874 20.2135 42.2787Z"
    fill="white" />
  <path
    d="M49.0667 39.4667C48.4776 39.4667 48 39.9443 48 40.5333V49.6917L43.5125 54.1792C43.2354 54.4469 43.124 54.8438 43.2219 55.2167C43.3193 55.5896 43.6104 55.8807 43.9833 55.9781C44.3562 56.076 44.7531 55.9646 45.0208 55.6875L49.8208 50.8875C50.0208 50.6875 50.1333 50.4162 50.1333 50.1333V40.5333C50.1333 39.9443 49.6557 39.4667 49.0667 39.4667Z"
    fill="white" />
</svg>